<svg width="55" height="79" viewBox="0 0 55 79" fill="none" xmlns="http://www.w3.org/2000/svg">
<path d="M53.2852 35.5156H46.1885C44.7751 35.5156 43.5521 35.7272 42.5195 36.1504C41.4785 36.5736 40.6787 37.1999 40.1201 38.0293C39.5615 38.8587 39.2822 39.8828 39.2822 41.1016C39.2822 42.1172 39.4473 42.9805 39.7773 43.6914C40.1074 44.4023 40.5729 44.9906 41.1738 45.4561C41.7663 45.9215 42.4603 46.2982 43.2559 46.5859L44.6016 47.3223H50.6445L50.6699 44.1104H46.1758C45.5579 44.1104 45.0459 44.0003 44.6396 43.7803C44.2334 43.5602 43.9287 43.2513 43.7256 42.8535C43.514 42.4473 43.4082 41.9733 43.4082 41.4316C43.4082 40.873 43.514 40.3906 43.7256 39.9844C43.9372 39.5781 44.2503 39.2692 44.665 39.0576C45.0713 38.8376 45.5791 38.7275 46.1885 38.7275H49.1465V54H53.2852V35.5156ZM43.0527 54L47.2041 45.7861L42.8369 45.7734L38.6221 53.8096V54H43.0527Z" fill="black"/>
<path d="M29.4834 35.5H33.5459L33.5205 32.3008H29.4834C28.5609 32.3008 27.7822 32.0892 27.1475 31.666C26.5127 31.2344 26.0303 30.5996 25.7002 29.7617C25.3701 28.9154 25.2051 27.887 25.2051 26.6768V25.8262C25.2051 24.9121 25.2982 24.1081 25.4844 23.4141C25.6706 22.7116 25.9456 22.1234 26.3096 21.6494C26.6735 21.1755 27.1263 20.82 27.668 20.583C28.2012 20.346 28.8148 20.2275 29.5088 20.2275H33.6221V17.0156H29.5088C28.2562 17.0156 27.1136 17.2272 26.0811 17.6504C25.04 18.0736 24.1429 18.6787 23.3896 19.4658C22.6279 20.2529 22.0397 21.1839 21.625 22.2588C21.2103 23.3337 21.0029 24.5312 21.0029 25.8516V26.6768C21.0029 27.9886 21.2103 29.1862 21.625 30.2695C22.0397 31.3444 22.6279 32.2754 23.3896 33.0625C24.1429 33.8411 25.0358 34.4421 26.0684 34.8652C27.1009 35.2884 28.2393 35.5 29.4834 35.5ZM31.1973 17.0156V35.5H35.3359V17.0156H31.1973Z" fill="black"/>
<path d="M1.53613 54.0156V72.5H5.66211L12.6445 60.5537V72.5H16.7832V54.0156H12.6445L5.64941 65.9619V54.0156H1.53613Z" fill="black"/>
</svg>
